<?xml version="1.0" encoding="utf-8"?>
<!-- Generator: Adobe Illustrator 16.0.0, SVG Export Plug-In . SVG Version: 6.00 Build 0)  -->
<!DOCTYPE svg PUBLIC "-//W3C//DTD SVG 1.1//EN" "http://www.w3.org/Graphics/SVG/1.1/DTD/svg11.dtd">
<svg version="1.1" id="Layer_1" xmlns="http://www.w3.org/2000/svg" xmlns:xlink="http://www.w3.org/1999/xlink" x="0px" y="0px"
	 width="612px" height="209.889px" viewBox="0 291.122 612 209.889" enable-background="new 0 291.122 612 209.889"
	 xml:space="preserve">
<g id="Layer_1_1_">
</g>
<g id="Layer_5">
	<g id="XMLID_260_">
		<path id="XMLID_261_" d="M63.896,312.908v14.613H51.808v-14.613c-3.72,2.125-6.244,6.111-6.244,10.627
			c0,6.775,5.447,12.221,12.222,12.221s12.221-5.446,12.221-12.221C70.14,319.019,67.616,315.033,63.896,312.908z"/>
	</g>
	<g id="XMLID_258_">
		<path id="XMLID_259_" d="M170.967,312.908v14.613h12.088v-14.613c3.72,2.125,6.244,6.111,6.244,10.627
			c0,6.775-5.446,12.221-12.221,12.221s-12.222-5.446-12.222-12.221C164.723,319.019,167.247,315.033,170.967,312.908z"/>
	</g>
</g>
<g id="Layer_2">
	<rect id="XMLID_83_" x="93.919" y="437.778" fill="#ED1C24" width="17.668" height="57.919"/>
	<rect id="XMLID_82_" x="122.479" y="437.778" fill="#ED1C24" width="17.668" height="57.919"/>
	<polygon id="XMLID_81_" fill="#ED1C24" points="181.86,384.244 179.203,330.841 174.022,330.841 170.568,384.244 	"/>
	<path id="XMLID_80_" fill="#ED1C24" d="M144.133,394.339c0,0,18.598,2.524,26.436-10.096l12.221,3.454
		c0,0-11.823,21.122-38.657,31.085V394.339L144.133,394.339z"/>
	<g id="XMLID_75_">
		<circle id="XMLID_79_" fill="#FFFFFF" cx="176.147" cy="387.697" r="6.642"/>
		<path id="XMLID_76_" fill="#ED1C24" d="M176.147,396.199c-4.782,0-8.635-3.853-8.635-8.635s3.853-8.635,8.635-8.635
			s8.635,3.853,8.635,8.635S180.93,396.199,176.147,396.199z M176.147,383.048c-2.524,0-4.649,2.125-4.649,4.649
			s2.125,4.649,4.649,4.649s4.649-2.125,4.649-4.649S178.804,383.048,176.147,383.048z"/>
	</g>
	<g id="XMLID_70_">
		<circle id="XMLID_74_" fill="#FFFFFF" cx="102.155" cy="467.137" r="7.971"/>
		<path id="XMLID_71_" fill="#ED1C24" d="M102.155,477.1c-5.446,0-9.963-4.517-9.963-9.963s4.517-9.963,9.963-9.963
			c5.447,0,7.971,4.517,7.971,9.963S107.602,477.1,102.155,477.1z M102.155,461.025c-3.321,0-6.11,2.657-6.11,6.111
			s2.657,6.11,6.11,6.11c3.454,0,6.111-2.656,6.111-6.11S105.476,461.025,102.155,461.025z"/>
	</g>
	<g id="XMLID_65_">
		<circle id="XMLID_69_" fill="#FFFFFF" cx="132.044" cy="467.137" r="7.971"/>
		<path id="XMLID_66_" fill="#ED1C24" d="M132.044,477.1c-5.447,0-8.9-4.517-8.9-9.963s3.321-9.963,8.9-9.963
			c5.446,0,9.963,4.517,9.963,9.963S137.491,477.1,132.044,477.1z M132.044,461.025c-3.321,0-6.111,2.657-6.111,6.111
			s2.657,6.11,6.111,6.11c3.454,0,6.11-2.656,6.11-6.11S135.365,461.025,132.044,461.025z"/>
	</g>
	<polygon id="XMLID_64_" fill="#ED1C24" points="52.339,384.244 54.863,330.841 60.044,330.841 63.498,384.244 	"/>
	<path id="XMLID_63_" fill="#ED1C24" d="M89.934,394.339c0,0-18.598,2.524-26.436-10.096l-12.221,3.454
		c0,0,11.823,21.122,38.657,31.085V394.339z"/>
	<g id="XMLID_58_">
		<circle id="XMLID_62_" fill="#FFFFFF" cx="57.919" cy="387.697" r="6.642"/>
		<path id="XMLID_59_" fill="#ED1C24" d="M57.919,396.199c-4.782,0-8.635-3.853-8.635-8.635s3.853-8.635,8.635-8.635
			s8.635,3.853,8.635,8.635S62.701,396.199,57.919,396.199z M57.919,383.048c-2.524,0-4.649,2.125-4.649,4.649
			s2.125,4.649,4.649,4.649s4.649-2.125,4.649-4.649S60.443,383.048,57.919,383.048z"/>
	</g>
	<path id="XMLID_57_" d="M91.129,391.019l0.266-28.163c0.133-7.041,2.922-13.55,7.97-18.465s11.69-7.572,18.73-7.439
		c7.041,0.133,13.55,2.922,18.465,7.97c4.915,5.048,7.572,11.69,7.439,18.731l-0.398,31.084l-9.033-0.133l0.398-31.084
		c0-4.649-1.727-9.033-4.915-12.354c-3.188-3.321-7.572-5.181-12.222-5.181s-9.033,1.727-12.354,4.915
		c-3.321,3.188-5.181,7.572-5.181,12.221l-0.399,28.163L91.129,391.019z"/>
	<circle id="XMLID_56_" cx="108.664" cy="369.631" r="3.852"/>
	<circle id="XMLID_55_" cx="126.73" cy="369.631" r="3.852"/>
	<circle id="XMLID_54_" cx="117.564" cy="413.602" r="35.07"/>
	<path id="XMLID_53_" fill="#ED1C24" d="M114.376,407.89l-1.329,25.106h9.831l-1.993-25.239c2.391-1.196,3.985-3.587,3.985-6.51
		c0-3.985-3.321-7.306-7.306-7.306s-7.306,3.321-7.306,7.306C110.391,404.303,111.985,406.693,114.376,407.89z"/>
	<g id="XMLID_50_">
		<path id="XMLID_52_" d="M115.173,500.479c-1.195-7.837-7.97-13.948-16.207-13.948s-15.011,5.978-16.207,13.948h30.553H115.173z"/>
		<path id="XMLID_51_" d="M151.705,500.479c-1.195-7.837-7.97-13.948-16.207-13.948c-8.236,0-15.011,5.978-16.207,13.948h1.86
			H151.705z"/>
	</g>
</g>
<g id="Layer_4">
	<path id="XMLID_236_" fill="#ED1C24" d="M33.21,304.804c-3.587-5.313-8.635-8.369-13.948-8.369c-5.447,0-10.362,2.922-14.082,8.236
		C1.86,309.587,0,316.096,0,322.871c0,6.774,1.86,13.284,5.181,18.199c3.587,5.313,8.635,8.236,13.948,8.236
		c5.314,0,10.362-2.922,14.082-8.236c2.391-3.454,3.985-7.572,4.649-12.089c0.133-0.797,0.93-1.461,1.727-1.461l210.553,0.133
		c0.93,0,1.727-0.797,1.86-1.727v-5.58c0-0.93-0.797-1.727-1.727-1.859h-6.376c-0.93,0-1.727-0.797-1.727-1.86v-23.646
		c0-0.93-0.797-1.727-1.727-1.86h-26.568c-0.93,0-1.727,0.797-1.86,1.727v23.646c0,0.93-0.797,1.727-1.86,1.727h-1.594
		c-0.93,0-1.727-0.797-1.727-1.859v-18.066c0-0.93-0.797-1.727-1.727-1.86h-4.118c-0.93,0-1.727,0.797-1.86,1.727v18.066
		c0,0.93-0.797,1.727-1.859,1.727H39.72c-0.93,0-1.594-0.664-1.727-1.461C37.062,312.376,35.602,308.125,33.21,304.804z
		 M19.129,341.867c-6.376,0-11.823-8.768-11.823-18.996c0-10.229,5.447-18.997,11.956-18.997c6.509,0,11.823,8.768,11.823,18.997
		C31.085,333.1,25.505,341.867,19.129,341.867z"/>
</g>
<g id="Layer_3">
	<g id="XMLID_45_">
		<path id="XMLID_46_" d="M66.687,330.841c-0.93-1.329-1.86-1.993-2.79-3.321l0,0H51.808v-14.613
			c-3.72,2.125-6.244,6.111-6.244,10.627c0,6.775,5.447,12.221,12.222,12.221c3.719,0,7.041-1.727,9.299-4.251
			C67.085,331.24,66.819,331.107,66.687,330.841z"/>
	</g>
	<g id="XMLID_23_">
		<path id="XMLID_43_" d="M198.598,486.133c3.454,0,6.244-1.062,8.236-3.056c2.125-1.992,3.055-4.649,3.055-7.97h17.402l0.133,0.398
			c0.133,7.173-2.524,13.284-8.104,18.199c-5.579,4.915-12.62,7.306-20.856,7.306c-10.627,0-18.863-3.32-24.708-10.096
			c-5.712-6.774-8.635-15.409-8.635-26.037v-1.992c0-10.495,2.923-19.129,8.9-26.037c5.978-6.774,14.347-10.229,25.373-10.229
			c5.712,0,10.893,0.797,15.542,2.523c4.517,1.728,8.369,4.118,11.424,7.307l0.266,19.129h-15.675l-3.188-11.158
			c-0.93-0.797-2.125-1.595-3.586-2.126c-1.461-0.531-3.056-0.797-4.782-0.797c-5.447,0-9.299,1.993-11.557,5.978
			c-2.259,3.985-3.321,9.033-3.321,15.277v1.992c0,6.377,1.062,11.558,3.055,15.41C189.83,484.141,193.417,486.133,198.598,486.133z
			"/>
		<path id="XMLID_40_" d="M269.137,500.878c-10.362,0-18.598-3.32-24.708-9.963c-6.111-6.642-9.299-15.011-9.299-25.24v-2.656
			c0-10.628,2.923-19.395,8.768-26.303c5.845-6.907,13.683-10.229,23.513-10.229c9.697,0,17.136,2.922,22.45,8.768
			c5.313,5.845,7.97,13.683,7.97,23.646v10.494h-42.642l-0.133,0.398c0.399,4.782,1.993,8.635,4.783,11.69
			c2.79,3.056,6.642,4.517,11.424,4.517c4.25,0,7.837-0.398,10.627-1.328c2.79-0.797,5.845-2.259,9.299-4.118l5.181,11.955
			c-2.923,2.392-6.775,4.251-11.424,5.846C280.162,500.081,274.981,500.878,269.137,500.878z M267.41,441.631
			c-3.587,0-6.376,1.328-8.502,4.118s-3.321,6.376-3.853,10.76l0.133,0.267h23.779v-1.728c0-4.118-0.93-7.306-2.922-9.83
			C274.185,442.826,271.395,441.631,267.41,441.631z"/>
		<path id="XMLID_38_" d="M309.122,487.992l9.299-1.992v-44.369l-10.229-1.992v-11.69h28.163l0.797,10.494
			c1.727-3.719,3.853-6.642,6.509-8.634c2.657-2.126,5.713-3.056,9.166-3.056c1.063,0,2.126,0.133,3.188,0.266
			s1.993,0.398,2.79,0.531v14.612l-5.713,0.133c-5.048,0-9.564,1.86-11.158,2.923c-1.727,1.195-3.321,3.985-4.384,5.978V486
			l9.299,1.992v11.558h-37.859v-11.558H309.122z"/>
		<path id="XMLID_32_" d="M397.594,410.546v17.004h12.62v14.612h-12.62v35.867c0,2.79,0.531,4.782,1.728,5.979
			c1.195,1.195,2.656,1.727,4.649,1.727c1.328,0,2.523,0,3.453-0.133c0.931-0.133,2.126-0.266,3.321-0.531l1.595,13.948
			c-2.126,0.664-4.251,1.195-6.377,1.461c-2.125,0.266-4.384,0.531-6.907,0.531c-6.643,0-11.823-1.859-15.41-5.446
			c-3.587-3.72-5.446-9.432-5.446-17.402v-35.867h-10.494v-14.612h10.494v-17.137H397.594z"/>
		<path id="XMLID_29_" fill="#ED1C24" d="M487.262,465.809c0,10.627-2.391,19.129-7.173,25.638
			c-4.782,6.377-11.69,9.564-20.591,9.564c-4.251,0-7.838-0.93-10.893-2.656c-3.056-1.728-5.713-4.251-7.838-7.572l-1.328,8.768
			h-16.605v-89.535l-10.229-1.992v-11.69h29.49v39.188c2.126-2.923,4.517-5.048,7.439-6.643c2.923-1.594,6.243-2.258,9.963-2.258
			c9.033,0,15.941,3.454,20.724,10.229c4.782,6.908,7.173,15.941,7.173,27.365v1.595H487.262z M468,464.347
			c0-6.907-1.062-12.487-3.056-16.604c-1.992-4.118-5.579-6.111-10.494-6.111c-3.056,0-5.579,0.664-7.572,1.86
			c-2.125,1.195-3.72,3.055-4.915,5.446v30.154c1.195,2.259,2.79,3.853,4.915,5.049c2.126,1.195,4.649,1.727,7.705,1.727
			c4.915,0,8.502-1.727,10.494-5.313c1.993-3.454,2.923-8.502,2.923-14.878V464.347z"/>
		<path id="XMLID_26_" fill="#ED1C24" d="M495.365,463.151c0-10.627,2.923-19.395,8.9-26.17
			c5.978-6.774,14.214-10.229,24.709-10.229c10.627,0,18.863,3.454,24.841,10.229c5.978,6.775,8.9,15.543,8.9,26.303v1.328
			c0,10.761-2.923,19.528-8.9,26.303c-5.978,6.775-14.214,10.096-24.708,10.096c-10.628,0-18.864-3.32-24.842-10.096
			c-5.978-6.774-8.9-15.542-8.9-26.303V463.151z M514.627,464.479c0,6.51,1.196,11.69,3.454,15.676
			c2.259,3.985,5.978,5.978,11.159,5.978c4.915,0,8.635-1.992,10.893-5.978c2.259-3.985,3.454-9.166,3.454-15.676v-1.328
			c0-6.376-1.195-11.558-3.454-15.543c-2.391-3.984-5.978-5.978-11.025-5.978c-5.049,0-8.635,1.993-11.026,5.978
			c-2.258,3.985-3.454,9.167-3.454,15.543V464.479L514.627,464.479z"/>
		<path id="XMLID_24_" fill="#ED1C24" d="M597.255,410.546v17.535h12.62v13.55h-12.62v36.398c0,2.79,0.531,4.782,1.727,5.979
			c1.195,1.195,2.657,1.727,4.649,1.727c1.328,0,2.524,0,3.454-0.133s2.125-0.266,3.321-0.531L612,499.019
			c-2.125,0.664-4.251,1.195-6.376,1.461c-2.126,0.266-4.384,0.531-6.908,0.531c-6.642,0-11.823-1.859-15.409-5.446
			c-3.587-3.72-5.447-9.432-5.447-17.402v-36.531h-10.494v-13.55h10.494v-17.535H597.255z"/>
	</g>
	<g id="XMLID_21_">
		<path id="XMLID_22_" d="M168.31,330.841c0.93-1.329,1.195-1.993,2.125-3.321h0.664h12.088v-14.613
			c3.72,2.125,6.244,6.111,6.244,10.627c0,6.775-5.446,12.221-12.221,12.221c-3.72,0-7.041-1.727-9.299-4.251
			C167.912,331.24,168.044,331.107,168.31,330.841z"/>
	</g>
</g>
</svg>
